<svg width="15" height="15" viewBox="0 0 15 15" fill="none" xmlns="http://www.w3.org/2000/svg">
<path d="M7.56006 4.0957C9.40576 4.0957 10.9292 5.61914 10.9292 7.46484C10.9292 9.33984 9.40576 10.834 7.56006 10.834C5.68506 10.834 4.19092 9.33984 4.19092 7.46484C4.19092 5.61914 5.68506 4.0957 7.56006 4.0957ZM7.56006 9.66211C8.76123 9.66211 9.72803 8.69531 9.72803 7.46484C9.72803 6.26367 8.76123 5.29688 7.56006 5.29688C6.32959 5.29688 5.36279 6.26367 5.36279 7.46484C5.36279 8.69531 6.35889 9.66211 7.56006 9.66211ZM11.8374 3.97852C11.8374 4.41797 11.4858 4.76953 11.0464 4.76953C10.6069 4.76953 10.2554 4.41797 10.2554 3.97852C10.2554 3.53906 10.6069 3.1875 11.0464 3.1875C11.4858 3.1875 11.8374 3.53906 11.8374 3.97852ZM14.064 4.76953C14.1226 5.85352 14.1226 9.10547 14.064 10.1895C14.0054 11.2441 13.771 12.1523 13.0093 12.9434C12.2476 13.7051 11.3101 13.9395 10.2554 13.998C9.17139 14.0566 5.91943 14.0566 4.83545 13.998C3.78076 13.9395 2.87256 13.7051 2.08154 12.9434C1.31982 12.1523 1.08545 11.2441 1.02686 10.1895C0.968262 9.10547 0.968262 5.85352 1.02686 4.76953C1.08545 3.71484 1.31982 2.77734 2.08154 2.01562C2.87256 1.25391 3.78076 1.01953 4.83545 0.960938C5.91943 0.902344 9.17139 0.902344 10.2554 0.960938C11.3101 1.01953 12.2476 1.25391 13.0093 2.01562C13.771 2.77734 14.0054 3.71484 14.064 4.76953ZM12.6577 11.332C13.0093 10.4824 12.9214 8.43164 12.9214 7.46484C12.9214 6.52734 13.0093 4.47656 12.6577 3.59766C12.4233 3.04102 11.9839 2.57227 11.4272 2.36719C10.5483 2.01562 8.49756 2.10352 7.56006 2.10352C6.59326 2.10352 4.54248 2.01562 3.69287 2.36719C3.10693 2.60156 2.66748 3.04102 2.43311 3.59766C2.08154 4.47656 2.16943 6.52734 2.16943 7.46484C2.16943 8.43164 2.08154 10.4824 2.43311 11.332C2.66748 11.918 3.10693 12.3574 3.69287 12.5918C4.54248 12.9434 6.59326 12.8555 7.56006 12.8555C8.49756 12.8555 10.5483 12.9434 11.4272 12.5918C11.9839 12.3574 12.4526 11.918 12.6577 11.332Z" fill="white"/>
</svg>
