<svg width="300" height="74" viewBox="0 0 300 74" fill="none" xmlns="http://www.w3.org/2000/svg">
<g clip-path="url(#clip0_118_22)">
<path d="M120.206 43.444L99.0051 22.8544C97.3585 21.2073 94.6827 20.6925 92.3156 21.4132C89.9485 22.1338 88.4048 23.9869 88.4048 26.1488V51.8857H95.9176V29.649L117.118 50.1356C118.25 51.268 119.897 51.8857 121.647 51.8857C122.367 51.8857 123.087 51.7828 123.808 51.5769C126.175 50.8562 127.719 49.0032 127.719 46.8413V21.5161H120.206V43.444ZM132.967 29.2372V51.268H140.48V29.2372C140.48 28.3107 141.406 27.59 142.436 27.59H167.856V21.2073H142.436C137.187 21.2073 132.967 24.8104 132.967 29.2372Z" fill="white"/>
<path d="M245.352 33.2521H231.252V39.6349H245.352C246.381 39.6349 247.307 40.1496 247.307 40.8703V51.268H254.82V40.8703C254.923 36.6494 250.6 33.2521 245.352 33.2521Z" fill="#FFE600"/>
<path d="M167.856 33.3551H143.362V39.7378H167.856V33.3551ZM174.34 27.59H189.365V51.371H196.878V27.59H211.904V21.2072H174.34V27.59ZM223.739 39.6349V33.3551C223.739 30.1637 226.827 27.59 230.532 27.59H252.762V21.2072H230.532C222.607 21.2072 216.124 26.6635 216.124 33.3551V39.6349C216.124 46.3265 222.607 51.7827 230.532 51.7827H244.425V45.4H230.532C226.724 45.297 223.739 42.7233 223.739 39.6349Z" fill="white"/>
<path d="M284.563 21.4131H275.197C266.655 21.4131 259.76 27.2812 259.76 34.3846V38.6054C259.76 45.8118 266.655 51.6798 275.197 51.6798H284.563C293.105 51.6798 300 45.8118 300 38.6054V34.3846C300 27.2812 293.002 21.4131 284.563 21.4131ZM292.384 38.7084C292.384 42.4145 288.885 45.4 284.46 45.4H275.094C270.772 45.4 267.17 42.4145 267.17 38.7084V34.4875C267.17 30.7814 270.669 27.7959 275.094 27.7959H284.46C288.782 27.7959 292.384 30.7814 292.384 34.4875V38.7084Z" fill="white"/>
<path d="M58.4563 73.1959H14.717C6.58662 73.1959 0 66.6072 0 58.4743V14.7215C0 6.58866 6.58662 0 14.717 0H58.5592C66.6895 0 73.2762 6.58866 73.2762 14.7215V58.5773C73.1732 66.6072 66.5866 73.1959 58.4563 73.1959Z" fill="#FFE600"/>
<path d="M45.1801 24.1927C44.6655 24.3986 44.8714 25.0163 45.3859 24.9134L48.1647 24.8104L42.6072 39.6349L37.3585 30.0608C35.7118 26.9723 32.6244 24.9134 29.1252 24.7075H27.5815C23.4649 25.0163 20.0686 27.59 18.6278 31.502L10.1887 54.9741C10.0858 55.18 10.2916 55.283 10.3945 55.283H23.1561C23.259 55.283 23.3619 55.18 23.3619 55.0771L28.8165 40.3555L34.0652 49.9297C36.0206 53.5328 39.8285 55.5918 43.8422 55.283C47.8559 54.9741 51.3551 52.4004 52.7959 48.5914L61.5438 24.7075L63.9108 18.2218C64.0137 18.0159 63.8079 17.81 63.6021 17.9129L45.1801 24.1927Z" fill="white"/>
<mask id="mask0_118_22" style="mask-type:luminance" maskUnits="userSpaceOnUse" x="10" y="17" width="54" height="39">
<path d="M45.1801 24.1927C44.6655 24.3986 44.8714 25.0163 45.3859 24.9134L48.1647 24.8104L42.6072 39.6349L37.3585 30.0608C35.7118 26.9723 32.6244 24.9134 29.1252 24.7075H27.5815C23.4649 25.0163 20.0686 27.59 18.6278 31.502L10.1887 54.9741C10.0858 55.18 10.2916 55.283 10.3945 55.283H23.1561C23.259 55.283 23.3619 55.18 23.3619 55.0771L28.8165 40.3555L34.0652 49.9297C36.0206 53.5328 39.8285 55.5918 43.8422 55.283C47.8559 54.9741 51.3551 52.4004 52.7959 48.5914L61.5438 24.7075L63.9108 18.2218C64.0137 18.0159 63.8079 17.81 63.6021 17.9129L45.1801 24.1927Z" fill="white"/>
</mask>
<g mask="url(#mask0_118_22)">
<path d="M46.3122 61.3569L22.6415 15.8539L6.27789 58.3714H15.7462L22.1269 40.1496C23.0532 37.2671 26.964 37.0612 28.4048 39.7378L37.2556 57.2389L46.3122 61.3569Z" fill="#CBD6FE"/>
</g>
<mask id="mask1_118_22" style="mask-type:luminance" maskUnits="userSpaceOnUse" x="10" y="17" width="54" height="39">
<path d="M45.1801 24.1927C44.6655 24.3986 44.8714 25.0163 45.3859 24.9134L48.1647 24.8104L42.6072 39.6349L37.3585 30.0608C35.7118 26.9723 32.6244 24.9134 29.1252 24.7075H27.5815C23.4649 25.0163 20.0686 27.59 18.6278 31.502L10.1887 54.9741C10.0858 55.18 10.2916 55.283 10.3945 55.283H23.1561C23.259 55.283 23.3619 55.18 23.3619 55.0771L28.8165 40.3555L34.0652 49.9297C36.0206 53.5328 39.8285 55.5918 43.8422 55.283C47.8559 54.9741 51.3551 52.4004 52.7959 48.5914L61.5438 24.7075L63.9108 18.2218C64.0137 18.0159 63.8079 17.81 63.6021 17.9129L45.1801 24.1927Z" fill="white"/>
</mask>
<g mask="url(#mask1_118_22)">
<path d="M38.2847 31.2961L43.7393 41.282C44.7684 43.1351 47.5472 43.0322 48.2676 40.9732L54.5454 25.0163H46.8268L38.2847 31.2961Z" fill="#CBD6FE"/>
</g>
</g>
<defs>
<clipPath id="clip0_118_22">
<rect width="300" height="73.1959" fill="white"/>
</clipPath>
</defs>
</svg>
