<svg width="19" height="15" viewBox="0 0 19 15" fill="none" xmlns="http://www.w3.org/2000/svg">
<path d="M15.2866 2.01562C17.2202 4.88672 18.187 8.10938 17.8354 11.8301C17.8354 11.8301 17.8354 11.8594 17.8062 11.8594C16.5171 12.8262 15.0522 13.5586 13.4995 14.0273C13.4702 14.0273 13.4409 14.0273 13.4409 14.0273C13.1187 13.5586 12.8257 13.0898 12.562 12.5918V12.5625C12.562 12.5332 12.562 12.5332 12.5913 12.5039C13.0601 12.3281 13.4995 12.123 13.939 11.8594C13.9683 11.8594 13.9683 11.8594 13.9683 11.8301C13.9683 11.8008 13.9683 11.8008 13.939 11.7715C13.8511 11.7129 13.7632 11.6543 13.6753 11.5664H13.646H13.6167C10.8335 12.8555 7.78662 12.8555 4.97412 11.5664C4.94482 11.5664 4.94482 11.5664 4.94482 11.5664C4.91553 11.5664 4.91553 11.5664 4.91553 11.5664C4.82764 11.6543 4.73975 11.7129 4.65186 11.7715C4.62256 11.8008 4.62256 11.8008 4.62256 11.8301C4.62256 11.8594 4.62256 11.8594 4.65186 11.8594C5.06201 12.123 5.53076 12.3281 5.99951 12.5039C5.99951 12.5332 6.02881 12.5332 6.02881 12.5625V12.5918C5.76514 13.0898 5.47217 13.5586 5.1499 14.0273C5.12061 14.0273 5.12061 14.0273 5.09131 14.0273C3.50928 13.5586 2.04443 12.8262 0.784668 11.8594C0.755371 11.8594 0.755371 11.8301 0.755371 11.8301C0.462402 8.60742 1.07764 5.35547 3.3042 2.01562C3.3042 2.01562 3.3042 2.01562 3.3335 2.01562C4.41748 1.51758 5.61865 1.13672 6.81982 0.931641C6.81982 0.931641 6.81982 0.931641 6.84912 0.931641H6.87842C7.0542 1.22461 7.20068 1.54688 7.31787 1.83984C7.9624 1.75195 8.60693 1.69336 9.28076 1.69336C9.95459 1.69336 10.6284 1.75195 11.2729 1.83984C11.3901 1.54688 11.5366 1.22461 11.7124 0.931641L11.7417 0.902344C11.7417 0.902344 11.7417 0.931641 11.771 0.931641C12.9722 1.13672 14.1733 1.51758 15.2573 2.01562C15.2866 2.01562 15.2866 2.01562 15.2866 2.01562ZM6.43896 9.86719C7.28857 9.86719 7.9917 9.07617 7.9917 8.13867C7.9917 7.17188 7.31787 6.41016 6.43896 6.41016C5.58936 6.41016 4.88623 7.17188 4.88623 8.13867C4.88623 9.07617 5.58936 9.86719 6.43896 9.86719ZM12.1519 9.86719C13.0308 9.86719 13.7046 9.07617 13.7046 8.13867C13.7339 7.17188 13.0308 6.41016 12.1519 6.41016C11.3022 6.41016 10.6284 7.17188 10.6284 8.13867C10.6284 9.07617 11.3022 9.86719 12.1519 9.86719Z" fill="white"/>
</svg>
