<svg width="16" height="13" viewBox="0 0 16 13" fill="none" xmlns="http://www.w3.org/2000/svg">
<path d="M13.7573 3.41797C13.7573 3.56445 13.7573 3.68164 13.7573 3.82812C13.7573 7.90039 10.6812 12.5586 5.02686 12.5586C3.26904 12.5586 1.65771 12.0605 0.310059 11.1816C0.544434 11.2109 0.778809 11.2402 1.04248 11.2402C2.47803 11.2402 3.79639 10.7422 4.85107 9.92188C3.50342 9.89258 2.36084 9.01367 1.97998 7.7832C2.18506 7.8125 2.36084 7.8418 2.56592 7.8418C2.82959 7.8418 3.12256 7.7832 3.35693 7.72461C1.95068 7.43164 0.895996 6.20117 0.895996 4.70703V4.67773C1.30615 4.91211 1.8042 5.0293 2.30225 5.05859C1.45264 4.50195 0.925293 3.56445 0.925293 2.50977C0.925293 1.92383 1.07178 1.39648 1.33545 0.957031C2.85889 2.80273 5.14404 4.0332 7.69287 4.17969C7.63428 3.94531 7.60498 3.71094 7.60498 3.47656C7.60498 1.77734 8.98193 0.400391 10.6812 0.400391C11.5601 0.400391 12.3511 0.751953 12.937 1.36719C13.6108 1.2207 14.2847 0.957031 14.8706 0.605469C14.6362 1.33789 14.1675 1.92383 13.5229 2.30469C14.1382 2.24609 14.7534 2.07031 15.2808 1.83594C14.8706 2.45117 14.3433 2.97852 13.7573 3.41797Z" fill="white"/>
</svg>
